<svg aria-hidden="true" width="0" height="0" style="position:absolute"><symbol viewBox="0 0 16 16" id="arrow-bold-down" xmlns="http://www.w3.org/2000/svg"><path fill-rule="evenodd" d="M6.84 2.154C6.84 1.517 7.36 1 8 1c.64 0 1.16.517 1.16 1.154v8.95l2.669-2.596a1.164 1.164 0 011.64.019 1.15 1.15 0 01-.018 1.631l-4.64 4.513a1.164 1.164 0 01-1.622 0l-4.64-4.513a1.15 1.15 0 01-.018-1.631 1.164 1.164 0 011.64-.019l2.669 2.596v-8.95z"/></symbol><symbol viewBox="0 0 16 16" id="arrow-bold-left" xmlns="http://www.w3.org/2000/svg"><path fill-rule="evenodd" d="M13.846 6.84C14.483 6.84 15 7.36 15 8c0 .64-.517 1.16-1.154 1.16h-8.95l2.596 2.669a1.164 1.164 0 01-.019 1.64 1.15 1.15 0 01-1.631-.018l-4.513-4.64a1.164 1.164 0 010-1.622l4.513-4.64a1.15 1.15 0 011.631-.018c.456.447.464 1.182.019 1.64L4.896 6.84h8.95z"/></symbol><symbol viewBox="0 0 16 16" id="arrow-bold-right" xmlns="http://www.w3.org/2000/svg"><path fill-rule="evenodd" d="M2.154 6.84h8.95L8.508 4.171a1.164 1.164 0 01.019-1.64 1.15 1.15 0 011.631.018l4.513 4.64c.439.45.439 1.171 0 1.622l-4.513 4.64a1.15 1.15 0 01-1.631.018 1.164 1.164 0 01-.019-1.64l2.596-2.669h-8.95C1.517 9.16 1 8.64 1 8c0-.64.517-1.16 1.154-1.16z"/></symbol><symbol viewBox="0 0 16 16" id="arrow-bold-up" xmlns="http://www.w3.org/2000/svg"><path fill-rule="evenodd" d="M6.84 13.846v-8.95L4.171 7.492a1.164 1.164 0 01-1.64-.019 1.15 1.15 0 01.018-1.631l4.64-4.513a1.164 1.164 0 011.622 0l4.64 4.513a1.15 1.15 0 01.018 1.631 1.164 1.164 0 01-1.64.019L9.16 4.896v8.95C9.16 14.483 8.64 15 8 15c-.64 0-1.16-.517-1.16-1.154z"/></symbol><symbol viewBox="0 0 16 16" id="arrow-medium-down" xmlns="http://www.w3.org/2000/svg"><path fill-rule="evenodd" d="M7.1 11.552V2.377c0-.486.404-.877.9-.877s.9.39.9.877v9.175l3.072-2.899a.918.918 0 011.269.014.86.86 0 01-.015 1.245l-4.599 4.34a.919.919 0 01-1.254 0l-4.6-4.34a.86.86 0 01-.014-1.245.918.918 0 011.269-.014l3.071 2.9z"/></symbol><symbol viewBox="0 0 16 16" id="arrow-medium-left" xmlns="http://www.w3.org/2000/svg"><path fill-rule="evenodd" d="M4.448 7.1h9.175c.486 0 .877.404.877.9s-.39.9-.877.9H4.448l2.899 3.072a.918.918 0 01-.014 1.269.86.86 0 01-1.245-.015l-4.34-4.599a.919.919 0 010-1.254l4.34-4.6a.86.86 0 011.245-.014.918.918 0 01.014 1.269l-2.9 3.071z"/></symbol><symbol viewBox="0 0 16 16" id="arrow-medium-right" xmlns="http://www.w3.org/2000/svg"><path fill-rule="evenodd" d="M11.552 7.1L8.653 4.027a.918.918 0 01.014-1.269.86.86 0 011.245.015l4.34 4.599c.33.35.33.905 0 1.254l-4.34 4.6a.86.86 0 01-1.245.014.918.918 0 01-.014-1.269l2.9-3.071H2.376A.889.889 0 011.5 8c0-.496.39-.9.877-.9h9.175z"/></symbol><symbol viewBox="0 0 16 16" id="arrow-medium-up" xmlns="http://www.w3.org/2000/svg"><path fill-rule="evenodd" d="M7.1 4.448L4.027 7.347a.918.918 0 01-1.269-.014.86.86 0 01.015-1.245l4.599-4.34a.919.919 0 011.254 0l4.6 4.34a.86.86 0 01.014 1.245.918.918 0 01-1.269.014l-3.071-2.9v9.176A.889.889 0 018 14.5c-.496 0-.9-.39-.9-.877V4.448z"/></symbol><symbol viewBox="0 0 16 16" id="arrow-mirroring-bold-shrink - horizontal" xmlns="http://www.w3.org/2000/svg"><path fill-rule="evenodd" d="M13.066 3.902a1.033 1.033 0 011.376.075l.09.103c.221.287.275.67.137 1.03l-.055.122-.086.129-.088.1-2.49 2.507 2.506 2.588.085.1c.131.176.202.389.204.618l-.007.133-.02.124-.043.137-.067.14-.095.137-.082.09-.09.08c-.285.219-.678.27-1.041.12l-.123-.06-.126-.09-.095-.088-3.163-3.27-.087-.103a1.053 1.053 0 01-.124-1.021l.055-.12.084-.127.083-.095 3.165-3.27zM1.662 3.883a1.033 1.033 0 011.05-.117l.109.057.105.073.118.107 3.162 3.27.083.096c.252.334.279.791.055 1.174l-.07.106-.078.09-3.166 3.27-.096.088c-.334.269-.802.3-1.193.067l-.109-.074-.114-.108-.078-.097-.07-.112c-.165-.31-.16-.697.033-1.029l.073-.112.078-.088 2.493-2.576-2.506-2.526-.08-.094a1.044 1.044 0 01-.16-.939l.045-.123.054-.11.086-.12.082-.09z"/></symbol><symbol viewBox="0 0 16 16" id="arrow-mirroring-bold-shrink - vertical" xmlns="http://www.w3.org/2000/svg"><path fill-rule="evenodd" d="M7.373 9.704c.251-.186.573-.247.887-.166l.126.04.128.058.127.084.095.083 3.27 3.165.089.097c.325.405.301.998-.075 1.376a1.047 1.047 0 01-1.133.226l-.123-.054-.128-.086-.101-.088-2.506-2.49-2.588 2.506-.1.085c-.176.131-.389.202-.618.203l-.133-.006-.124-.02-.137-.043-.14-.068-.137-.094-.09-.082-.08-.09a1.039 1.039 0 01-.12-1.042l.06-.122.09-.126.087-.095 3.27-3.163zM4.224 1.37c.27-.145.601-.158.902-.03l.119.058.12.078.088.078 2.576 2.493 2.526-2.506.094-.08c.263-.2.607-.26.938-.16l.124.045.109.054.122.086.09.082.082.094c.252.329.281.795.057 1.163l-.07.1-.108.119-3.27 3.162-.096.083a1.052 1.052 0 01-1.173.055l-.107-.07-.089-.078-3.27-3.166-.088-.096a1.037 1.037 0 01-.067-1.193l.073-.109.109-.114.097-.078z"/></symbol><symbol viewBox="0 0 16 16" id="arrow-mirroring-bold-spread - horizontal" xmlns="http://www.w3.org/2000/svg"><path fill-rule="evenodd" d="M4.816 3.902a1.033 1.033 0 011.376.075l.09.103c.221.287.275.67.137 1.03l-.055.122-.086.129-.088.1L3.7 7.969l2.506 2.588.085.1c.131.176.202.389.204.618l-.007.133-.02.124-.043.137-.067.14-.095.137-.082.09-.09.08c-.285.219-.678.27-1.041.12l-.123-.06-.126-.09-.095-.088-3.163-3.27-.087-.103a1.053 1.053 0 01-.124-1.021l.055-.12.084-.127.083-.095L4.72 3.99zm5.096-.019a1.033 1.033 0 011.05-.117l.109.057.105.073.118.107 3.162 3.27.083.096c.252.334.279.791.055 1.174l-.07.106-.078.09-3.166 3.27-.096.088c-.334.269-.802.3-1.193.067l-.109-.074-.114-.108-.078-.097-.07-.112c-.165-.31-.16-.697.033-1.029l.073-.112.078-.088 2.493-2.576-2.506-2.526-.08-.094a1.044 1.044 0 01-.16-.939l.045-.123.054-.11.086-.12.082-.09z"/></symbol><symbol viewBox="0 0 16 16" id="arrow-mirroring-bold-spread - vertical" xmlns="http://www.w3.org/2000/svg"><path fill-rule="evenodd" d="M4.225 9.617c.27-.144.601-.157.902-.03l.119.059.12.078.088.078 2.576 2.493 2.526-2.506.094-.08c.263-.2.608-.26.939-.16l.123.045.11.054.12.086.09.082.083.094c.252.328.282.795.057 1.162l-.07.101-.107.118-3.27 3.163-.097.082a1.052 1.052 0 01-1.173.056l-.106-.07-.09-.079-3.27-3.165-.088-.096a1.037 1.037 0 01-.067-1.193l.074-.11.108-.113.097-.079zm3.15-8.164a1.053 1.053 0 011.02-.123l.12.054.127.085.095.083 3.27 3.165.089.097c.325.405.301.998-.075 1.376a1.047 1.047 0 01-1.133.226l-.122-.055-.129-.085-.1-.089L8.03 3.7 5.442 6.203l-.1.086c-.176.13-.389.202-.618.203l-.133-.006-.124-.02-.137-.044-.14-.067-.137-.094-.09-.082-.08-.09a1.039 1.039 0 01-.12-1.042l.06-.122.09-.126L4 4.704l3.27-3.163z"/></symbol><symbol viewBox="0 0 16 16" id="arrow-mirroring-extrabold-shrink - horizontal" xmlns="http://www.w3.org/2000/svg"><path fill-rule="evenodd" d="M12.79 3.817a1.283 1.283 0 011.829-.017c.365.364.474.904.283 1.4l-.06.134-.103.161-.109.128-2.329 2.347 2.334 2.412c.231.238.357.551.36.89l-.007.146-.022.15-.052.172-.08.172-.112.17-.103.118c-.37.369-.919.472-1.416.265l-.134-.064-.159-.11-.12-.108-3.177-3.282a1.297 1.297 0 01-.264-1.39l.06-.131.102-.16.102-.12 3.176-3.283zM1.38 3.8a1.283 1.283 0 011.575-.187l.112.076.143.128 3.176 3.282c.406.42.476 1.054.174 1.57l-.076.117-.098.115-3.176 3.282a1.283 1.283 0 01-1.597.195l-.12-.08-.144-.132-.101-.12a1.3 1.3 0 01-.061-1.427l.08-.123.097-.114L3.697 7.97 1.364 5.618a1.29 1.29 0 01-.302-1.281l.049-.136.064-.132.104-.154.102-.115z"/></symbol><symbol viewBox="0 0 16 16" id="arrow-mirroring-extrabold-shrink - vertical" xmlns="http://www.w3.org/2000/svg"><path fill-rule="evenodd" d="M12.18 12.788c.516.5.523 1.321.017 1.83a1.296 1.296 0 01-1.4.283l-.134-.06-.162-.103-.128-.109-2.346-2.33-2.412 2.335c-.238.23-.552.357-.89.36l-.147-.007-.149-.022-.172-.052-.173-.08-.17-.112-.117-.103a1.283 1.283 0 01-.265-1.416l.064-.134.109-.16.108-.12 3.283-3.176c.366-.354.9-.456 1.389-.264l.132.06.159.102.121.102 3.283 3.176zm.017-11.409c.423.425.491 1.077.187 1.575l-.077.112-.127.143-3.283 3.176a1.298 1.298 0 01-1.57.174l-.116-.076-.115-.098-3.283-3.176a1.283 1.283 0 01-.194-1.597l.08-.12.132-.144.12-.101a1.3 1.3 0 011.427-.061l.123.08.114.097 2.412 2.333 2.351-2.333c.341-.33.826-.44 1.282-.302l.135.049.133.064.154.104.115.101z"/></symbol><symbol viewBox="0 0 16 16" id="arrow-mirroring-extrabold-spread - horizontal" xmlns="http://www.w3.org/2000/svg"><path fill-rule="evenodd" d="M4.54 3.817A1.283 1.283 0 016.368 3.8c.365.364.474.904.283 1.4l-.06.134-.103.161-.109.128L4.051 7.97l2.334 2.412c.231.238.357.551.36.89l-.007.146-.022.15-.052.172-.08.172-.112.17-.103.118c-.37.369-.919.472-1.416.265L4.82 12.4l-.159-.11-.12-.108-3.177-3.282A1.297 1.297 0 011.1 7.51l.06-.131.102-.16.102-.12L4.54 3.816zM9.63 3.8a1.283 1.283 0 011.575-.187l.112.076.143.128 3.176 3.282c.406.42.476 1.054.174 1.57l-.076.117-.098.115-3.176 3.282a1.283 1.283 0 01-1.597.195l-.12-.08-.144-.132-.101-.12a1.3 1.3 0 01-.061-1.427l.08-.123.097-.114 2.333-2.412-2.333-2.352a1.29 1.29 0 01-.302-1.281l.049-.136.064-.132.104-.154.102-.115z"/></symbol><symbol viewBox="0 0 16 16" id="arrow-mirroring-extrabold-spread - vertical" xmlns="http://www.w3.org/2000/svg"><path fill-rule="evenodd" d="M12.181 4.537c.516.499.523 1.321.017 1.83a1.296 1.296 0 01-1.4.282l-.134-.06-.162-.102-.127-.109-2.347-2.33-2.412 2.335c-.238.23-.551.357-.89.36l-.147-.007-.148-.023-.173-.051-.173-.08-.17-.113-.117-.103a1.283 1.283 0 01-.265-1.415l.064-.134.11-.16.108-.12L7.097 1.36c.366-.354.9-.456 1.39-.264l.131.06.16.102.12.102 3.283 3.176zm.017 5.091c.423.425.492 1.077.187 1.575l-.076.112-.128.143L8.9 14.634a1.298 1.298 0 01-1.57.174l-.117-.076-.115-.098-3.282-3.176A1.283 1.283 0 013.62 9.86l.08-.12.132-.143.12-.101a1.3 1.3 0 011.427-.062l.123.08.114.098 2.412 2.333 2.352-2.333c.34-.33.825-.44 1.28-.302l.137.048.132.064.154.105.115.101z"/></symbol><symbol viewBox="0 0 16 16" id="arrow-mirroring-medium-shrink - horizontal" xmlns="http://www.w3.org/2000/svg"><path fill-rule="evenodd" d="M13.149 4.164a.783.783 0 011.117-.01c.246.246.3.619.147.924l-.06.099-.078.094-2.674 2.695 2.675 2.763c.184.19.257.455.207.708l-.029.107-.044.105-.067.108-.077.089a.783.783 0 01-.928.133l-.097-.062-.092-.081-3.176-3.283a.797.797 0 01-.136-.916l.059-.097.077-.093 3.176-3.283zm-11.416-.01a.783.783 0 011.03-.068l.088.078 3.176 3.283c.27.28.295.71.074 1.018l-.074.088-3.176 3.283a.783.783 0 01-1.031.083l-.09-.077-.077-.09a.799.799 0 01-.003-.935l.073-.088 2.674-2.763-2.674-2.695a.797.797 0 01-.127-.933l.061-.096.076-.088z"/></symbol><symbol viewBox="0 0 16 16" id="arrow-mirroring-medium-shrink - vertical" xmlns="http://www.w3.org/2000/svg"><path fill-rule="evenodd" d="M11.835 13.149c.315.305.32.807.01 1.117a.797.797 0 01-.924.147l-.098-.059-.095-.078-2.695-2.674-2.763 2.674a.793.793 0 01-.708.207l-.107-.029-.105-.044-.108-.067-.089-.077a.783.783 0 01-.133-.927l.062-.098.082-.092 3.282-3.176a.797.797 0 01.916-.135l.097.058.093.077 3.283 3.176zm.01-11.415a.783.783 0 01.068 1.03l-.078.087-3.283 3.176a.797.797 0 01-1.018.074l-.088-.074-3.282-3.176A.783.783 0 014.08 1.82l.078-.09.09-.077a.799.799 0 01.934-.003l.088.074 2.763 2.673 2.696-2.673a.797.797 0 01.932-.128l.096.061.088.077z"/></symbol><symbol viewBox="0 0 16 16" id="arrow-mirroring-medium-spread - horizontal" xmlns="http://www.w3.org/2000/svg"><path fill-rule="evenodd" d="M4.899 4.164a.783.783 0 011.117-.01c.246.246.3.619.147.924l-.06.099-.078.094-2.674 2.695 2.675 2.763c.184.19.257.455.207.708l-.029.107-.044.105-.067.108-.077.089a.783.783 0 01-.928.133l-.097-.062-.092-.081-3.176-3.283a.797.797 0 01-.136-.916l.059-.097.077-.093 3.176-3.283zm5.084-.01a.783.783 0 011.03-.068l.088.078 3.176 3.283c.27.28.295.71.074 1.018l-.074.088-3.176 3.283a.783.783 0 01-1.031.083l-.09-.077-.077-.09a.799.799 0 01-.003-.935l.073-.088 2.674-2.763-2.674-2.695a.797.797 0 01-.127-.933l.061-.096.076-.088z"/></symbol><symbol viewBox="0 0 16 16" id="arrow-mirroring-medium-spread - vertical" xmlns="http://www.w3.org/2000/svg"><path fill-rule="evenodd" d="M11.835 4.898c.315.305.32.807.01 1.118a.797.797 0 01-.923.146l-.099-.059-.094-.078-2.695-2.674L5.27 6.026a.793.793 0 01-.707.207l-.108-.03-.104-.044-.108-.067-.09-.076a.783.783 0 01-.132-.928l.062-.098.081-.092 3.283-3.176a.797.797 0 01.916-.135l.097.059.093.076 3.282 3.176zm.01 5.085a.783.783 0 01.069 1.03l-.079.088-3.282 3.175a.797.797 0 01-1.018.074l-.088-.074-3.283-3.175a.783.783 0 01-.084-1.032l.078-.09.09-.076a.799.799 0 01.935-.003l.087.073 2.764 2.674 2.695-2.674a.797.797 0 01.933-.127l.096.06.088.077z"/></symbol><symbol viewBox="0 0 16 16" id="arrow-oval-down" xmlns="http://www.w3.org/2000/svg"><path fill-rule="evenodd" d="M0 8a8 8 0 1116 0A8 8 0 010 8zm8.488 3.332V3.494A.491.491 0 008 3a.491.491 0 00-.488.494v7.838L4.83 8.674a.483.483 0 00-.69.008.499.499 0 00.008.699l3.512 3.478c.19.188.492.188.682 0l3.512-3.478a.499.499 0 00.008-.699.483.483 0 00-.69-.008l-2.683 2.658z"/></symbol><symbol viewBox="0 0 16 16" id="arrow-oval-left" xmlns="http://www.w3.org/2000/svg"><path fill-rule="evenodd" d="M8 16A8 8 0 118 0a8 8 0 010 16zM4.668 7.512L7.326 4.83a.483.483 0 00-.008-.69.499.499 0 00-.699.008L3.141 7.659a.483.483 0 000 .682l3.478 3.512c.19.193.504.196.699.008a.483.483 0 00.008-.69L4.668 8.488h7.838A.491.491 0 0013 8a.491.491 0 00-.494-.488H4.668z"/></symbol><symbol viewBox="0 0 16 16" id="arrow-oval-right" xmlns="http://www.w3.org/2000/svg"><path fill-rule="evenodd" d="M8 16A8 8 0 118 0a8 8 0 010 16zm3.332-8.488H3.494A.491.491 0 003 8c0 .27.221.488.494.488h7.838L8.674 11.17a.483.483 0 00.008.69.499.499 0 00.699-.008l3.478-3.512a.483.483 0 000-.682L9.381 4.147a.499.499 0 00-.699-.008.483.483 0 00-.008.69l2.658 2.683z"/></symbol><symbol viewBox="0 0 16 16" id="arrow-oval-up" xmlns="http://www.w3.org/2000/svg"><path fill-rule="evenodd" d="M0 8a8 8 0 1116 0A8 8 0 010 8zm8.488-3.332l2.683 2.658c.193.19.502.187.69-.008a.499.499 0 00-.008-.699L8.341 3.141a.483.483 0 00-.682 0L4.147 6.619a.499.499 0 00-.008.699.483.483 0 00.69.008l2.683-2.658v7.838c0 .273.219.494.488.494.27 0 .488-.221.488-.494V4.668z"/></symbol><symbol viewBox="0 0 16 16" id="arrow-regular-down" xmlns="http://www.w3.org/2000/svg"><path fill-rule="evenodd" d="M7.39 11.998V2.593C7.39 2.265 7.663 2 8 2c.337 0 .61.265.61.593v9.405l3.354-3.189a.622.622 0 01.862.01.581.581 0 01-.01.838l-4.39 4.174a.622.622 0 01-.852 0l-4.39-4.174a.581.581 0 01-.01-.838.622.622 0 01.862-.01L7.39 12z"/></symbol><symbol viewBox="0 0 16 16" id="arrow-regular-left" xmlns="http://www.w3.org/2000/svg"><path fill-rule="evenodd" d="M4.002 7.39h9.405c.328 0 .593.273.593.61 0 .337-.265.61-.593.61H4.002l3.189 3.354a.622.622 0 01-.01.862.581.581 0 01-.838-.01l-4.174-4.39a.622.622 0 010-.852l4.174-4.39a.581.581 0 01.838-.01.622.622 0 01.01.862L4 7.39z"/></symbol><symbol viewBox="0 0 16 16" id="arrow-regular-right" xmlns="http://www.w3.org/2000/svg"><path fill-rule="evenodd" d="M11.998 7.39L8.81 4.036a.622.622 0 01.01-.862.581.581 0 01.838.01l4.174 4.39a.622.622 0 010 .852l-4.174 4.39a.581.581 0 01-.838.01.622.622 0 01-.01-.862L12 8.61H2.592A.601.601 0 012 8c0-.337.265-.61.593-.61h9.405z"/></symbol><symbol viewBox="0 0 16 16" id="arrow-regular-up" xmlns="http://www.w3.org/2000/svg"><path fill-rule="evenodd" d="M7.39 4.002L4.036 7.19a.622.622 0 01-.862-.01.581.581 0 01.01-.838l4.39-4.174a.622.622 0 01.852 0l4.39 4.174c.241.229.246.604.01.838a.622.622 0 01-.862.01L8.61 4v9.406A.601.601 0 018 14a.601.601 0 01-.61-.593V4.002z"/></symbol><symbol viewBox="0 0 24 24" id="border-radius" xmlns="http://www.w3.org/2000/svg"><path d="M17 3.5v.94c-4.69.8-9.05 4.29-11.25 8.65V7.37c1.1-.35 1.87-1.42 1.73-2.66a2.517 2.517 0 00-2.19-2.2A2.51 2.51 0 002.5 5c0 1.12.74 2.05 1.75 2.37V17H3.5c-.28 0-.5.22-.5.5v3c0 .28.22.5.5.5h3c.28 0 .5-.22.5-.5v-3c0-.28-.22-.5-.5-.5h-.53C7 11.81 11.81 7 17 5.97v.53c0 .28.22.5.5.5h3c.28 0 .5-.22.5-.5v-3c0-.28-.22-.5-.5-.5h-3c-.28 0-.5.22-.5.5z" fill-rule="evenodd"/></symbol><symbol viewBox="0 0 16 16" id="default" xmlns="http://www.w3.org/2000/svg"><path fill-rule="evenodd" d="M13.236 3.65a.6.6 0 01.433.184.65.65 0 010 .9l-7.128 7.068a.8.8 0 01-1.116.01L2.331 8.86a.639.639 0 01-.181-.45.639.639 0 01.181-.45.602.602 0 01.866 0l2.372 2.18a.6.6 0 00.826-.014l6.408-6.292a.6.6 0 01.433-.184z"/></symbol><symbol viewBox="0 0 16 16" id="default" xmlns="http://www.w3.org/2000/svg"><path fill-rule="evenodd" d="M13.236 3.4a.85.85 0 00-.612.26L6.47 9.97l-.061.056a.67.67 0 01-.851-.009l-.052-.047-2.13-2.184a.852.852 0 00-1.224 0 .887.887 0 00-.252.625c0 .234.09.456.252.623l3.224 3.306a.85.85 0 001.224 0l7.248-7.432a.899.899 0 000-1.248.85.85 0 00-.612-.26z"/></symbol><symbol viewBox="0 0 16 16" id="default" xmlns="http://www.w3.org/2000/svg"><path fill-rule="evenodd" d="M1.394 7.457l.11-.104a1.328 1.328 0 011.825.104l2.317 2.425a.286.286 0 00.317.039l.07-.05L12.67 2.92c.257-.269.602-.419.968-.419.365 0 .711.15.967.419.525.55.525 1.437 0 1.987l-7.805 8.175a1.332 1.332 0 01-.967.419c-.366 0-.712-.15-.968-.419L1.394 9.445A1.433 1.433 0 011 8.452c0-.374.14-.728.394-.995z"/></symbol><symbol viewBox="0 0 16 16" id="oval" xmlns="http://www.w3.org/2000/svg"><path fill-rule="evenodd" d="M8 16A8 8 0 108 0a8 8 0 000 16zm4.844-11.45c.148 0 .287.059.392.167a.588.588 0 010 .815L6.83 11.884a.8.8 0 01-1.116.01L2.964 9.27a.579.579 0 01-.164-.407.579.579 0 01.164-.408.546.546 0 01.785 0l2.109 1.938a.6.6 0 00.826-.014l5.767-5.662a.544.544 0 01.393-.167z"/></symbol><symbol viewBox="0 0 16 16" id="oval" xmlns="http://www.w3.org/2000/svg"><path fill-rule="evenodd" d="M8 0a8 8 0 110 16A8 8 0 018 0zm4.079 4.3c-.302 0-.587.121-.799.338L6.72 9.315l-.01.003-.013-.006L5.12 7.694a1.113 1.113 0 00-1.597 0c-.208.214-.323.5-.323.8 0 .298.115.583.323.797l2.389 2.449a1.111 1.111 0 001.596 0l5.369-5.505a1.147 1.147 0 000-1.597 1.11 1.11 0 00-.798-.338z"/></symbol><symbol viewBox="0 0 16 16" id="oval-outline" xmlns="http://www.w3.org/2000/svg"><path fill-rule="evenodd" d="M8 0a8 8 0 110 16A8 8 0 018 0zm0 1.5a6.5 6.5 0 100 13 6.5 6.5 0 000-13zm2.925 3.6a.74.74 0 01.537.232c.29.304.29.794 0 1.099L7.42 10.664a.74.74 0 01-1.074 0L4.548 8.781a.792.792 0 01-.218-.549c0-.206.077-.402.22-.551l.06-.056a.738.738 0 011.012.058L6.82 8.935a.098.098 0 00.064.024c.015 0 .03-.003.038-.007l.029-.02 3.438-3.6a.74.74 0 01.537-.232z"/></symbol><symbol viewBox="0 0 16 16" id="oval-outline" xmlns="http://www.w3.org/2000/svg"><path fill-rule="evenodd" d="M8 0a8 8 0 110 16A8 8 0 018 0zm0 2a6 6 0 100 12A6 6 0 008 2zm3.49 3a1 1 0 01.719.304c.388.398.388 1.04 0 1.437l-4.832 4.955a1 1 0 01-1.436 0L3.79 9.492a1.026 1.026 0 01-.291-.718c0-.27.103-.527.291-.72a1.001 1.001 0 011.437 0l1.42 1.457.01.006.01-.004 4.104-4.209A1 1 0 0111.491 5z"/></symbol><symbol viewBox="0 0 24 24" id="padding-bottom" xmlns="http://www.w3.org/2000/svg"><path fill-rule="evenodd" d="M3.002 3.5a.5.5 0 01.41-.492L3.503 3h17a.5.5 0 01.492.41l.008.09v17a.5.5 0 01-.41.492l-.09.008h-17a.5.5 0 01-.492-.41l-.008-.09v-17zm2 2.502v7a1 1 0 00.884.993l.116.007h12a1 1 0 00.994-.883l.006-.117v-7a1 1 0 00-.883-.993l-.117-.007h-12a1 1 0 00-.993.884l-.007.116z"/></symbol><symbol viewBox="0 0 24 24" id="padding-left" xmlns="http://www.w3.org/2000/svg"><path fill-rule="evenodd" d="M20.502 3a.5.5 0 01.5.5v17a.5.5 0 01-.5.5h-17a.5.5 0 01-.5-.5v-17a.5.5 0 01.5-.5zM18 5h-7a1 1 0 00-1 1v12a1 1 0 001 1h7a1 1 0 001-1V6a1 1 0 00-1-1z"/></symbol><symbol viewBox="0 0 24 24" id="padding-right" xmlns="http://www.w3.org/2000/svg"><path fill-rule="evenodd" d="M3.502 21a.5.5 0 01-.492-.41l-.008-.09v-17a.5.5 0 01.41-.492L3.503 3h17a.5.5 0 01.492.41l.008.09v17a.5.5 0 01-.41.492l-.09.008h-17zm2.503-2h7a1 1 0 00.993-.884l.007-.116V6a1 1 0 00-.884-.993L13.005 5h-7a1 1 0 00-.994.883L5.005 6v12a1 1 0 00.883.993l.117.007z"/></symbol><symbol viewBox="0 0 24 24" id="padding-top" xmlns="http://www.w3.org/2000/svg"><path fill-rule="evenodd" d="M21.002 20.5a.5.5 0 01-.41.492l-.09.008h-17a.5.5 0 01-.492-.41l-.008-.09v-17a.5.5 0 01.41-.492L3.502 3h17a.5.5 0 01.492.41l.008.09v17zm-2-2.502v-7a1 1 0 00-.883-.994l-.117-.006h-12a1 1 0 00-.993.883l-.007.117v7a1 1 0 00.884.993l.116.007h12a1 1 0 00.993-.884l.007-.116z"/></symbol><symbol viewBox="0 0 16 16" id="round" xmlns="http://www.w3.org/2000/svg"><path fill-rule="evenodd" d="M13 0a3 3 0 013 3v10a3 3 0 01-3 3H3a3 3 0 01-3-3V3a3 3 0 013-3h10zm-.634 4a1.22 1.22 0 00-.878.374l-5.017 5.17-.01.005-.014-.007-1.735-1.789a1.22 1.22 0 00-1.756 0c-.23.237-.356.552-.356.884 0 .33.126.645.356.881l2.627 2.708a1.22 1.22 0 001.756 0l5.905-6.087a1.273 1.273 0 000-1.765A1.219 1.219 0 0012.366 4z"/></symbol><symbol viewBox="0 0 16 16" id="round-outline" xmlns="http://www.w3.org/2000/svg"><path fill-rule="evenodd" d="M12 0a4 4 0 014 4v8a4 4 0 01-4 4H4a4 4 0 01-4-4V4a4 4 0 014-4h8zm0 1.5H4a2.5 2.5 0 00-2.495 2.336L1.5 4v8a2.5 2.5 0 002.336 2.495L4 14.5h8a2.5 2.5 0 002.495-2.336L14.5 12V4a2.5 2.5 0 00-2.336-2.495L12 1.5zm-1.075 3.6a.74.74 0 01.537.232c.29.304.29.794 0 1.099L7.42 10.664a.74.74 0 01-1.074 0L4.548 8.781a.792.792 0 01-.218-.549c0-.206.077-.402.22-.551l.06-.056a.738.738 0 011.012.058L6.82 8.935a.098.098 0 00.064.024c.015 0 .03-.003.038-.007l.029-.02 3.438-3.6a.74.74 0 01.537-.232z"/></symbol><symbol viewBox="0 0 16 16" id="round-outline" xmlns="http://www.w3.org/2000/svg"><path fill-rule="evenodd" d="M12 0a4 4 0 014 4v8a4 4 0 01-4 4H4a4 4 0 01-4-4V4a4 4 0 014-4h8zm-.308 2H4.308a2.308 2.308 0 00-2.303 2.156L2 4.308v7.384c0 1.224.952 2.225 2.156 2.303l.152.005h7.384a2.308 2.308 0 002.303-2.156l.005-.152V4.308a2.308 2.308 0 00-2.156-2.303L11.692 2zm-.201 3a1 1 0 01.718.304c.388.398.388 1.04 0 1.437l-4.832 4.955a1 1 0 01-1.436 0L3.79 9.492a1.026 1.026 0 01-.291-.718c0-.27.103-.527.291-.72a1.001 1.001 0 011.437 0l1.42 1.457.01.006.01-.004 4.104-4.209A1 1 0 0111.491 5z"/></symbol></svg>