<svg xmlns="http://www.w3.org/2000/svg" width="100" height="100" viewBox="0 0 100 100">
  <g fill="none" fill-opacity=".3" fill-rule="evenodd">
    <circle cx=".5" cy=".5" r="1" fill="#FFF"/>
    <circle cx=".5" cy="20.5" r="1" fill="#FFF"/>
    <circle cx=".5" cy="40.5" r="1" fill="#FFF"/>
    <circle cx=".5" cy="60.5" r="1" fill="#FFF"/>
    <circle cx="20.5" cy=".5" r="1" fill="#FFF"/>
    <circle cx="20.5" cy="20.5" r="1" fill="#FFF"/>
    <circle cx="20.5" cy="40.5" r="1" fill="#FFF"/>
    <circle cx="20.5" cy="60.5" r="1" fill="#FFF"/>
    <circle cx="40.5" cy=".5" r="1" fill="#FFF"/>
    <circle cx="40.5" cy="20.5" r="1" fill="#FFF"/>
    <circle cx="40.5" cy="40.5" r="1" fill="#FFF"/>
    <circle cx="40.5" cy="60.5" r="1" fill="#FFF"/>
    <circle cx="60.5" cy=".5" r="1" fill="#FFF"/>
    <circle cx="60.5" cy="20.5" r="1" fill="#FFF"/>
    <circle cx="60.5" cy="40.5" r="1" fill="#FFF"/>
    <circle cx="60.5" cy="60.5" r="1" fill="#FFF"/>
    <circle cx="80.5" cy=".5" r="1" fill="#FFF"/>
    <circle cx="80.5" cy="20.5" r="1" fill="#FFF"/>
    <circle cx="80.5" cy="40.5" r="1" fill="#FFF"/>
    <circle cx="80.5" cy="60.5" r="1" fill="#FFF"/>
    <circle cx=".5" cy="80.5" r="1" fill="#FFF"/>
    <circle cx="20.5" cy="80.5" r="1" fill="#FFF"/>
    <circle cx="40.5" cy="80.5" r="1" fill="#FFF"/>
    <circle cx="60.5" cy="80.5" r="1" fill="#FFF"/>
    <circle cx="80.5" cy="80.5" r="1" fill="#FFF"/>
  </g>
</svg>
