<svg xmlns="http://www.w3.org/2000/svg" width="81" height="81" viewBox="0 0 81 81">
  <g fill="#FFF" fill-rule="evenodd" opacity=".2">
    <circle cx=".5" cy=".5" r="1"/>
    <circle cx=".5" cy="20.5" r="1"/>
    <circle cx=".5" cy="40.5" r="1"/>
    <circle cx=".5" cy="60.5" r="1"/>
    <circle cx="20.5" cy=".5" r="1"/>
    <circle cx="20.5" cy="20.5" r="1"/>
    <circle cx="20.5" cy="40.5" r="1"/>
    <circle cx="20.5" cy="60.5" r="1"/>
    <circle cx="40.5" cy=".5" r="1"/>
    <circle cx="40.5" cy="20.5" r="1"/>
    <circle cx="40.5" cy="40.5" r="1"/>
    <circle cx="40.5" cy="60.5" r="1"/>
    <circle cx="60.5" cy=".5" r="1"/>
    <circle cx="60.5" cy="20.5" r="1"/>
    <circle cx="60.5" cy="40.5" r="1"/>
    <circle cx="60.5" cy="60.5" r="1"/>
    <circle cx="80.5" cy=".5" r="1"/>
    <circle cx="80.5" cy="20.5" r="1"/>
    <circle cx="80.5" cy="40.5" r="1"/>
    <circle cx="80.5" cy="60.5" r="1"/>
    <circle cx=".5" cy="80.5" r="1"/>
    <circle cx="20.5" cy="80.5" r="1"/>
    <circle cx="40.5" cy="80.5" r="1"/>
    <circle cx="60.5" cy="80.5" r="1"/>
    <circle cx="80.5" cy="80.5" r="1"/>
  </g>
</svg>
