<?xml version="1.0" encoding="UTF-8"?>
<svg width="89px" height="24px" viewBox="0 0 89 24" version="1.1" xmlns="http://www.w3.org/2000/svg" xmlns:xlink="http://www.w3.org/1999/xlink">
    <title>Combined Shape</title>
    <g id="Landing" stroke="none" stroke-width="1" fill="none" fill-rule="evenodd">
        <g id="3" transform="translate(-710.000000, -3435.000000)" fill="#000000" fill-rule="nonzero">
            <g id="Group-15" transform="translate(642.000000, 3435.000000)">
                <path d="M87.2375965,0 C88.6080485,0 89.7238148,1.11346445 89.7359427,2.48108926 L89.7359427,2.48108926 L89.7359427,24 L87.1163175,21.7367625 L85.6488423,20.3933434 L84.0964719,18.9652042 L84.7392503,21.1800303 L70.9862183,21.1800303 C69.6157663,21.1800303 68.5,20.0665658 68.5,18.698941 L68.5,18.698941 L68.5,2.48108926 C68.5,1.11346445 69.6157663,0 70.9862183,0 L70.9862183,0 Z M132.559537,5.03479576 C134.791069,5.03479576 137.03473,6.25718608 137.03473,8.72617247 L137.03473,8.72617247 L137.03473,12.3933434 C137.03473,14.8502269 134.815325,16.0847201 132.583793,16.0847201 C130.340132,16.0847201 128.1086,14.8502269 128.1086,12.3933434 L128.1086,12.3933434 L128.1086,8.72617247 C128.1086,6.24508321 130.328004,5.03479576 132.559537,5.03479576 Z M123.536384,5.03479576 C124.858324,5.03479576 126.447078,5.59152799 127.320287,7.50378215 L127.320287,7.50378215 L125.100882,8.39939486 C124.373208,7.06807867 121.971885,7.37065053 121.971885,8.70196672 L121.971885,8.70196672 L121.971885,12.4054463 C121.971885,13.7004539 124.409592,14.0635401 124.991731,12.5748865 L124.991731,12.5748865 L127.368798,13.6641452 C126.471334,15.4069592 124.846196,16.0726172 123.487872,16.0726172 C121.377619,16.0726172 119.243109,14.8502269 119.243109,12.4054463 L119.243109,12.4054463 L119.243109,8.70196672 C119.243109,6.28139183 121.377619,5.03479576 123.536384,5.03479576 Z M114.416207,5.02269289 C115.713892,5.02269289 116.975193,5.38577912 118.090959,6.74130106 L118.090959,6.74130106 L116.308159,8.10892587 C115.180265,6.9107413 113.251929,6.9591528 113.203418,8.20574887 C113.239802,8.72617247 113.797685,9.02874433 114.634509,9.21028744 C116.550717,9.5612708 118.466924,10.2269289 118.345645,12.8532526 C118.26075,14.934947 116.065601,16.0726172 114.088754,16.0726172 C112.803197,16.0726172 111.432745,15.419062 110.42613,14.1240545 L110.42613,14.1240545 L112.148291,12.5143722 C113.227674,13.8214826 115.604741,13.881997 115.677508,12.7322239 C115.701764,12.1270802 114.719405,11.7760968 113.834068,11.6550681 C112.099779,11.3888048 110.523153,10.2874433 110.523153,8.24205749 C110.523153,6.13615734 112.439361,5.02269289 114.416207,5.02269289 Z M100.86935,5.18003026 C103.028115,5.18003026 105.053473,6.28139183 105.041399,8.79878971 L105.041399,8.79878971 L105.041399,12.4054463 C105.041399,14.8744327 103.015987,15.9515885 100.857222,15.9395864 L100.857222,15.9395864 L96.8307607,15.9395864 L96.8307607,13.3857791 L100.954245,13.3857791 C101.888093,13.3857791 102.312569,12.913767 102.312569,12.2118003 L102.312569,12.2118003 L102.312569,8.85930408 C102.312569,8.15733737 101.863837,7.72163389 100.954245,7.72163389 L100.954245,7.72163389 L99.5231533,7.72163389 L99.5231533,12.1028744 L96.8428886,9.69440242 L96.8428886,5.18003026 Z M152.315877,5.18003026 C154.474642,5.18003026 156.5,6.28139183 156.5,8.79878971 L156.5,8.79878971 L156.5,12.4054463 C156.5,14.8744327 154.474642,15.9515885 152.315877,15.9395864 L152.315877,15.9395864 L148.277288,15.9395864 L148.277288,13.3857791 L152.400772,13.3857791 C153.33462,13.3857791 153.759096,12.913767 153.759096,12.2118003 L153.759096,12.2118003 L153.759096,8.85930408 C153.759096,8.15733737 153.310364,7.72163389 152.400772,7.72163389 L152.400772,7.72163389 L150.96968,7.72163389 L150.96968,12.1028744 L148.289416,9.69440242 L148.289416,5.18003026 Z M142.783352,5.19213313 C145.002756,5.19213313 146.724917,6.20877458 146.785557,8.72617247 C146.785557,10.7110439 145.972988,11.8366112 144.675303,12.2481089 L144.675303,12.2481089 L147.610254,15.9394856 L144.214443,15.9394856 L141.716097,12.526475 L141.230981,12.526475 L141.230981,15.9394856 L138.477949,15.9394856 L138.477949,5.19213313 Z M109.225469,5.18003026 L109.225469,15.9273828 L106.50882,15.9273828 L106.50882,5.18003026 L109.225469,5.18003026 Z M77.2442117,5.60363086 L77.2195316,5.60357352 C77.008089,5.60523635 75.470074,5.65982278 73.8484013,6.8623298 C73.8484013,6.8623298 72.1019846,9.99697428 72.1019846,13.8577912 C72.1019846,13.8577912 73.1207277,15.6006051 75.8009923,15.6853253 C75.8009923,15.6853253 76.2497244,15.1527988 76.6135612,14.6928896 C75.0733186,14.2329803 74.4911797,13.2768533 74.4911797,13.2768533 C74.4911797,13.2768533 74.6124587,13.3615734 74.8307607,13.4826021 C74.8428886,13.4826021 74.8550165,13.494705 74.8792723,13.5068079 C74.915656,13.5310136 74.9520397,13.5431165 74.9884234,13.5673222 C75.2916207,13.7367625 75.5948181,13.8698941 75.8737596,13.97882 C76.3710033,14.1845688 76.9652701,14.366112 77.6565601,14.4992436 C78.5661521,14.6686838 79.6334068,14.7291982 80.7976847,14.5113464 C81.3676957,14.4024206 81.9498346,14.2450832 82.5562293,13.9909228 C82.9807056,13.8335855 83.4536935,13.6036309 83.9509372,13.2768533 C83.9509372,13.2768533 83.3445424,14.2571861 81.7557883,14.7049924 C82.1196251,15.1527988 82.5562293,15.6732224 82.5562293,15.6732224 C85.2364939,15.5885023 86.255237,13.8456884 86.255237,13.8577912 C86.255237,9.99697428 84.5088203,6.8623298 84.5088203,6.8623298 C82.8984092,5.65982278 81.3507414,5.60523635 81.1378624,5.60357352 L81.1130099,5.60363086 L80.9432194,5.79727685 C83.0049614,6.41452345 83.963065,7.32223903 83.963065,7.32223903 C82.7017641,6.64447806 81.4647189,6.30559758 80.3125689,6.17246596 C79.4393605,6.07564297 78.6025358,6.09984871 77.8627343,6.19667171 C77.7899669,6.19667171 77.7293275,6.20877458 77.6565601,6.22087746 C77.2320838,6.26928896 76.2012128,6.41452345 74.9035281,6.98335855 C74.454796,7.17700454 74.1879824,7.32223903 74.1879824,7.32223903 L74.19,7.32 L74.2057243,7.30585581 C74.3420845,7.1825106 75.2683558,6.38890744 77.1188671,5.82151634 L77.3654906,5.74886536 L77.2442117,5.60363086 L77.2442117,5.60363086 Z M132.523153,7.51588502 C131.674201,7.51588502 130.825248,7.93948563 130.825248,8.72617247 L130.825248,8.72617247 L130.825248,12.3933434 C130.825248,13.1921331 131.698456,13.5673222 132.571665,13.5673222 C133.432745,13.5673222 134.305954,13.1679274 134.305954,12.3933434 L134.305954,12.3933434 L134.305954,8.72617247 C134.305954,7.89107413 133.40849,7.51588502 132.523153,7.51588502 Z M81.245167,10 C81.9340949,10 82.5,10.6681818 82.5,11.5 C82.5,12.3318182 81.9463972,13 81.245167,13 C80.556239,13 79.9903339,12.3318182 79.9903339,11.5 C79.9903339,10.6681818 80.5439367,10 81.245167,10 Z M76.754833,10 C77.4560633,10 78.0219684,10.6681818 78.0096661,11.5 C78.0096661,12.3318182 77.4560633,13 76.754833,13 C76.0659051,13 75.5,12.3318182 75.5,11.5 C75.5,10.6681818 76.0536028,10 76.754833,10 Z M142.831863,7.72163389 L141.230981,7.72163389 L141.230981,10.1785174 L142.831863,10.1785174 C144.541896,10.1785174 144.541896,7.72163389 142.831863,7.72163389 L142.831863,7.72163389 Z" id="Combined-Shape"></path>
            </g>
        </g>
    </g>
</svg>