<svg xmlns="http://www.w3.org/2000/svg" width="101" height="26" viewBox="0 0 101 26">
  <g fill="#FFF" fill-rule="evenodd" transform="translate(0 .839)">
    <path d="M2.10052939,16.0225847 C1.72244,14.5811189 1.73425529,11.8163402 2.12415997,10.3394286 C3.38839637,5.49515824 7.26381263,1.99783137 12.1671594,1.27709847 C13.4550264,1.09986907 15.4990722,1.20620671 16.7278627,1.51340434 C17.8975767,1.82060197 19.5753484,2.63585722 20.4733107,3.34477483 C21.9265918,4.50267359 23.0726753,6.32222878 23.4743953,8.11815339 C23.7579623,9.37057449 23.6516247,11.3319132 23.26172,12.4189202 C22.2810506,15.0773612 19.8471002,16.7669482 16.9996144,16.7669482 C15.2627663,16.7669482 13.9867146,16.317967 12.9705994,15.3609283 C12.2616818,14.6874566 11.9190383,14.0848766 11.6354712,12.9860543 C11.0092607,10.516658 12.8642617,7.87003222 15.3809192,7.69280282 C16.3852192,7.62191106 17.1059521,7.7282487 17.5903791,8.02363104 L17.9802838,8.25993691 L17.7321626,8.70891806 C17.1886591,9.66595683 17.1295827,9.713218 16.538818,9.55961919 C14.6247405,9.07519216 13.1241982,11.3082826 14.2348358,12.9860543 C14.4002499,13.2341755 14.7901546,13.6004496 15.0973522,13.777679 C15.5935945,14.0730613 15.7826392,14.1085072 16.6687862,14.1085072 C17.5076721,14.1085072 17.7794238,14.061246 18.3229273,13.8013095 C20.4614954,12.7851943 21.288566,9.98496975 20.1306672,7.69280282 C19.7171319,6.86573228 18.6301249,5.84961704 17.6967168,5.41245118 C13.7385934,3.5692654 8.90613842,5.70783352 7.55919496,9.91407799 C7.20473616,10.9892697 7.1338444,12.7970096 7.38196556,13.8722013 C7.78368554,15.5617883 9.00066077,17.3695282 10.3594195,18.3147516 C11.1392289,18.8464398 11.0919677,19.0000387 9.54416427,21.3867279 C7.94909965,23.844309 7.96091494,23.844309 6.72030913,22.9109008 C4.45177278,21.2331291 2.84489287,18.8346246 2.10052939,16.0225847 Z"/>
    <path fill-rule="nonzero" d="M35.778,18.4852903 C36.342,18.4852903 36.891,18.4072903 37.425,18.2512903 C37.959,18.0952903 38.43,17.8582903 38.838,17.5402903 C39.246,17.2222903 39.573,16.8202903 39.819,16.3342903 C40.065,15.8482903 40.188,15.2752903 40.188,14.6152903 C40.188,13.9792903 40.074,13.4542903 39.846,13.0402903 C39.618,12.6262903 39.324,12.2812903 38.964,12.0052903 C38.604,11.7292903 38.202,11.5072903 37.758,11.3392903 C37.314,11.1712903 36.876,11.0212903 36.444,10.8892903 C36.084,10.7692903 35.745,10.6522903 35.427,10.5382903 C35.109,10.4242903 34.833,10.2862903 34.599,10.1242903 C34.365,9.96229032 34.179,9.76429032 34.041,9.53029032 C33.903,9.29629032 33.834,9.00529032 33.834,8.65729032 C33.834,8.29729032 33.909,7.98829032 34.059,7.73029032 C34.209,7.47229032 34.404,7.25629032 34.644,7.08229032 C34.884,6.90829032 35.151,6.78229032 35.445,6.70429032 C35.739,6.62629032 36.03,6.58729032 36.318,6.58729032 C36.858,6.58729032 37.344,6.69829032 37.776,6.92029032 C38.208,7.14229032 38.55,7.42729032 38.802,7.77529032 L38.802,7.77529032 L40.062,6.55129032 C39.666,6.10729032 39.144,5.75329032 38.496,5.48929032 C37.848,5.22529032 37.152,5.09329032 36.408,5.09329032 C35.88,5.09329032 35.355,5.16229032 34.833,5.30029032 C34.311,5.43829032 33.843,5.65729032 33.429,5.95729032 C33.015,6.25729032 32.679,6.63529032 32.421,7.09129032 C32.163,7.54729032 32.034,8.09329032 32.034,8.72929032 C32.034,9.31729032 32.13,9.80929032 32.322,10.2052903 C32.514,10.6012903 32.766,10.9342903 33.078,11.2042903 C33.39,11.4742903 33.744,11.6962903 34.14,11.8702903 C34.536,12.0442903 34.938,12.1912903 35.346,12.3112903 C35.754,12.4432903 36.141,12.5722903 36.507,12.6982903 C36.873,12.8242903 37.194,12.9772903 37.47,13.1572903 C37.746,13.3372903 37.965,13.5562903 38.127,13.8142903 C38.289,14.0722903 38.37,14.3932903 38.37,14.7772903 C38.37,15.1612903 38.292,15.4882903 38.136,15.7582903 C37.98,16.0282903 37.779,16.2532903 37.533,16.4332903 C37.287,16.6132903 37.014,16.7452903 36.714,16.8292903 C36.414,16.9132903 36.114,16.9552903 35.814,16.9552903 C35.226,16.9552903 34.68,16.8172903 34.176,16.5412903 C33.672,16.2652903 33.27,15.9052903 32.97,15.4612903 L32.97,15.4612903 L31.584,16.6312903 C32.076,17.2432903 32.697,17.7052903 33.447,18.0172903 C34.197,18.3292903 34.974,18.4852903 35.778,18.4852903 Z M42.744,22.4812903 C43.164,22.4812903 43.527,22.4272903 43.833,22.3192903 C44.139,22.2112903 44.406,22.0582903 44.634,21.8602903 C44.862,21.6622903 45.06,21.4222903 45.228,21.1402903 C45.396,20.8582903 45.552,20.5372903 45.696,20.1772903 L45.696,20.1772903 L49.836,9.62929032 L48.036,9.62929032 L45.678,16.3252903 L45.642,16.3252903 L42.996,9.62929032 L41.106,9.62929032 L44.76,18.1612903 L44.22,19.5832903 C44.04,20.0392903 43.842,20.3902903 43.626,20.6362903 C43.41,20.8822903 43.08,21.0052903 42.636,21.0052903 C42.36,21.0052903 42.078,20.9572903 41.79,20.8612903 L41.79,20.8612903 L41.628,22.3552903 C41.82,22.4032903 42.009,22.4362903 42.195,22.4542903 C42.381,22.4722903 42.564,22.4812903 42.744,22.4812903 Z M53.166,18.1612903 L53.166,13.6252903 C53.166,12.7732903 53.373,12.0922903 53.787,11.5822903 C54.201,11.0722903 54.72,10.8172903 55.344,10.8172903 C55.68,10.8172903 55.962,10.8742903 56.19,10.9882903 C56.418,11.1022903 56.604,11.2582903 56.748,11.4562903 C56.892,11.6542903 56.994,11.8912903 57.054,12.1672903 C57.114,12.4432903 57.144,12.7492903 57.144,13.0852903 L57.144,13.0852903 L57.144,18.1612903 L58.836,18.1612903 L58.836,13.5532903 C58.836,13.2172903 58.875,12.8872903 58.953,12.5632903 C59.031,12.2392903 59.157,11.9482903 59.331,11.6902903 C59.505,11.4322903 59.73,11.2222903 60.006,11.0602903 C60.282,10.8982903 60.612,10.8172903 60.996,10.8172903 C61.368,10.8172903 61.674,10.8892903 61.914,11.0332903 C62.154,11.1772903 62.346,11.3692903 62.49,11.6092903 C62.634,11.8492903 62.736,12.1252903 62.796,12.4372903 C62.856,12.7492903 62.886,13.0792903 62.886,13.4272903 L62.886,13.4272903 L62.886,18.1612903 L64.578,18.1612903 L64.578,12.8692903 C64.578,12.3892903 64.515,11.9392903 64.389,11.5192903 C64.263,11.0992903 64.068,10.7332903 63.804,10.4212903 C63.54,10.1092903 63.21,9.86029032 62.814,9.67429032 C62.418,9.48829032 61.944,9.39529032 61.392,9.39529032 C60.78,9.39529032 60.216,9.54229032 59.7,9.83629032 C59.184,10.1302903 58.782,10.5532903 58.494,11.1052903 C58.23,10.4932903 57.867,10.0552903 57.405,9.79129032 C56.943,9.52729032 56.424,9.39529032 55.848,9.39529032 C55.2,9.39529032 54.639,9.55429032 54.165,9.87229032 C53.691,10.1902903 53.346,10.5772903 53.13,11.0332903 L53.13,11.0332903 L53.076,11.0332903 C53.076,10.8532903 53.07,10.6282903 53.058,10.3582903 C53.046,10.0882903 53.028,9.84529032 53.004,9.62929032 L53.004,9.62929032 L51.402,9.62929032 C51.426,9.90529032 51.444,10.2232903 51.456,10.5832903 C51.468,10.9432903 51.474,11.2372903 51.474,11.4652903 L51.474,18.1612903 L53.166,18.1612903 Z M72.228,18.3952903 C72.888,18.3952903 73.482,18.2782903 74.01,18.0442903 C74.538,17.8102903 74.988,17.4892903 75.36,17.0812903 C75.732,16.6732903 76.02,16.1932903 76.224,15.6412903 C76.428,15.0892903 76.53,14.5012903 76.53,13.8772903 C76.53,13.2532903 76.428,12.6682903 76.224,12.1222903 C76.02,11.5762903 75.729,11.0992903 75.351,10.6912903 C74.973,10.2832903 74.523,9.96529032 74.001,9.73729032 C73.479,9.50929032 72.9,9.39529032 72.264,9.39529032 C71.556,9.39529032 70.944,9.54229032 70.428,9.83629032 C69.912,10.1302903 69.51,10.4872903 69.222,10.9072903 L69.222,10.9072903 L69.168,10.9072903 L69.168,4.55329032 L67.476,4.55329032 L67.476,18.1612903 L69.114,18.1612903 L69.114,16.8112903 L69.15,16.8112903 C69.486,17.3272903 69.93,17.7202903 70.482,17.9902903 C71.034,18.2602903 71.616,18.3952903 72.228,18.3952903 Z M71.94,16.9732903 C71.508,16.9732903 71.115,16.8892903 70.761,16.7212903 C70.407,16.5532903 70.104,16.3282903 69.852,16.0462903 C69.6,15.7642903 69.405,15.4372903 69.267,15.0652903 C69.129,14.6932903 69.06,14.3032903 69.06,13.8952903 C69.06,13.4872903 69.129,13.0972903 69.267,12.7252903 C69.405,12.3532903 69.6,12.0232903 69.852,11.7352903 C70.104,11.4472903 70.407,11.2192903 70.761,11.0512903 C71.115,10.8832903 71.508,10.7992903 71.94,10.7992903 C72.408,10.7992903 72.819,10.8832903 73.173,11.0512903 C73.527,11.2192903 73.824,11.4472903 74.064,11.7352903 C74.304,12.0232903 74.484,12.3532903 74.604,12.7252903 C74.724,13.0972903 74.784,13.4812903 74.784,13.8772903 C74.784,14.2732903 74.724,14.6572903 74.604,15.0292903 C74.484,15.4012903 74.304,15.7312903 74.064,16.0192903 C73.824,16.3072903 73.527,16.5382903 73.173,16.7122903 C72.819,16.8862903 72.408,16.9732903 71.94,16.9732903 Z M82.92,18.3952903 C83.568,18.3952903 84.174,18.2842903 84.738,18.0622903 C85.302,17.8402903 85.791,17.5282903 86.205,17.1262903 C86.619,16.7242903 86.943,16.2472903 87.177,15.6952903 C87.411,15.1432903 87.528,14.5372903 87.528,13.8772903 C87.528,13.2172903 87.411,12.6142903 87.177,12.0682903 C86.943,11.5222903 86.619,11.0512903 86.205,10.6552903 C85.791,10.2592903 85.302,9.95029032 84.738,9.72829032 C84.174,9.50629032 83.568,9.39529032 82.92,9.39529032 C82.272,9.39529032 81.666,9.50629032 81.102,9.72829032 C80.538,9.95029032 80.052,10.2592903 79.644,10.6552903 C79.236,11.0512903 78.915,11.5222903 78.681,12.0682903 C78.447,12.6142903 78.33,13.2172903 78.33,13.8772903 C78.33,14.5372903 78.447,15.1432903 78.681,15.6952903 C78.915,16.2472903 79.236,16.7242903 79.644,17.1262903 C80.052,17.5282903 80.538,17.8402903 81.102,18.0622903 C81.666,18.2842903 82.272,18.3952903 82.92,18.3952903 Z M82.92,16.9732903 C82.464,16.9732903 82.059,16.8892903 81.705,16.7212903 C81.351,16.5532903 81.054,16.3252903 80.814,16.0372903 C80.574,15.7492903 80.391,15.4192903 80.265,15.0472903 C80.139,14.6752903 80.076,14.2852903 80.076,13.8772903 C80.076,13.4692903 80.139,13.0792903 80.265,12.7072903 C80.391,12.3352903 80.574,12.0082903 80.814,11.7262903 C81.054,11.4442903 81.351,11.2192903 81.705,11.0512903 C82.059,10.8832903 82.464,10.7992903 82.92,10.7992903 C83.376,10.7992903 83.781,10.8832903 84.135,11.0512903 C84.489,11.2192903 84.786,11.4442903 85.026,11.7262903 C85.266,12.0082903 85.449,12.3352903 85.575,12.7072903 C85.701,13.0792903 85.764,13.4692903 85.764,13.8772903 C85.764,14.2852903 85.701,14.6752903 85.575,15.0472903 C85.449,15.4192903 85.266,15.7492903 85.026,16.0372903 C84.786,16.3252903 84.489,16.5532903 84.135,16.7212903 C83.781,16.8892903 83.376,16.9732903 82.92,16.9732903 Z M91.596,18.1612903 L91.596,4.55329032 L89.904,4.55329032 L89.904,18.1612903 L91.596,18.1612903 Z M96.996,18.3952903 C97.428,18.3952903 97.848,18.3472903 98.256,18.2512903 C98.664,18.1552903 99.027,17.9962903 99.345,17.7742903 C99.663,17.5522903 99.918,17.2672903 100.11,16.9192903 C100.302,16.5712903 100.398,16.1452903 100.398,15.6412903 C100.398,15.2692903 100.326,14.9452903 100.182,14.6692903 C100.038,14.3932903 99.837,14.1562903 99.579,13.9582903 C99.321,13.7602903 99.018,13.5952903 98.67,13.4632903 C98.322,13.3312903 97.944,13.2172903 97.536,13.1212903 C96.888,12.9772903 96.402,12.8182903 96.078,12.6442903 C95.754,12.4702903 95.592,12.2032903 95.592,11.8432903 C95.592,11.6392903 95.637,11.4682903 95.727,11.3302903 C95.817,11.1922903 95.937,11.0782903 96.087,10.9882903 C96.237,10.8982903 96.408,10.8322903 96.6,10.7902903 C96.792,10.7482903 96.984,10.7272903 97.176,10.7272903 C97.608,10.7272903 97.998,10.8262903 98.346,11.0242903 C98.694,11.2222903 98.964,11.4772903 99.156,11.7892903 L99.156,11.7892903 L100.326,10.7992903 C100.014,10.3432903 99.573,9.99529032 99.003,9.75529032 C98.433,9.51529032 97.842,9.39529032 97.23,9.39529032 C96.822,9.39529032 96.426,9.44629032 96.042,9.54829032 C95.658,9.65029032 95.316,9.80629032 95.016,10.0162903 C94.716,10.2262903 94.473,10.4962903 94.287,10.8262903 C94.101,11.1562903 94.008,11.5492903 94.008,12.0052903 C94.008,12.4012903 94.083,12.7342903 94.233,13.0042903 C94.383,13.2742903 94.578,13.4992903 94.818,13.6792903 C95.058,13.8592903 95.325,14.0002903 95.619,14.1022903 C95.913,14.2042903 96.204,14.2912903 96.492,14.3632903 C97.224,14.5312903 97.779,14.7112903 98.157,14.9032903 C98.535,15.0952903 98.724,15.3892903 98.724,15.7852903 C98.724,16.0252903 98.676,16.2232903 98.58,16.3792903 C98.484,16.5352903 98.355,16.6612903 98.193,16.7572903 C98.031,16.8532903 97.851,16.9222903 97.653,16.9642903 C97.455,17.0062903 97.248,17.0272903 97.032,17.0272903 C96.552,17.0272903 96.111,16.9132903 95.709,16.6852903 C95.307,16.4572903 94.992,16.1752903 94.764,15.8392903 L94.764,15.8392903 L93.558,16.8652903 C93.966,17.3812903 94.479,17.7652903 95.097,18.0172903 C95.715,18.2692903 96.348,18.3952903 96.996,18.3952903 Z"/>
  </g>
</svg>
