<svg xmlns="http://www.w3.org/2000/svg" width="100" height="26" viewBox="0 0 100 26">
  <g fill="#FFF" fill-rule="evenodd" transform="translate(0 .839)">
    <path d="M9.82541558,18.3483886 C7.10645168,16.6053925 5.65652088,13.1849414 6.71177579,9.78043574 C7.88656614,5.99027153 11.7413916,3.82983615 15.6017156,4.74829061 C18.5450146,5.44867812 20.259309,7.78341311 19.8142676,10.5936506 C19.4592903,12.8351326 17.4605082,14.3184937 15.2641132,13.9705543 C13.7756935,13.7348924 12.8241386,12.5201836 13.0324184,11.2055137 C13.2298113,9.95924404 14.3529166,9.10622066 15.5990763,9.30350363 C15.7902011,9.33374488 15.9648306,9.38378042 16.0993217,9.42952719 C16.198513,9.46328743 16.3077114,9.42732783 16.364455,9.33924329 L17.0640728,8.25484681 C17.1314833,8.15026704 17.0966234,8.01148717 16.987095,7.95232427 C16.717343,7.80628649 16.2785699,7.61483185 15.7119037,7.52498782 C13.3454979,7.15021618 11.1666978,8.77026779 10.7919261,11.1364537 C10.4578427,13.245204 11.8530094,15.9798934 15.0315304,16.4833278 C18.6983103,17.0640699 22.1362463,14.763755 22.7268856,11.0342932 C23.5274541,5.97971459 19.7557646,1.54194761 14.0572121,1.05654795 C8.18842886,0.556632484 2.73004697,4.45423563 1.35247524,10.1809399 C0.0897103286,15.4298324 2.46062486,20.5845921 6.6985796,23.2166811 C6.98097795,23.3919704 7.35234059,23.3112538 7.53246851,23.0318246 L10.0125815,19.1870062 C10.1951287,18.904058 10.1090236,18.5301661 9.82541558,18.3483886"/>
    <path fill-rule="nonzero" d="M34.778,18.4852903 C35.342,18.4852903 35.891,18.4072903 36.425,18.2512903 C36.959,18.0952903 37.43,17.8582903 37.838,17.5402903 C38.246,17.2222903 38.573,16.8202903 38.819,16.3342903 C39.065,15.8482903 39.188,15.2752903 39.188,14.6152903 C39.188,13.9792903 39.074,13.4542903 38.846,13.0402903 C38.618,12.6262903 38.324,12.2812903 37.964,12.0052903 C37.604,11.7292903 37.202,11.5072903 36.758,11.3392903 C36.314,11.1712903 35.876,11.0212903 35.444,10.8892903 C35.084,10.7692903 34.745,10.6522903 34.427,10.5382903 C34.109,10.4242903 33.833,10.2862903 33.599,10.1242903 C33.365,9.96229032 33.179,9.76429032 33.041,9.53029032 C32.903,9.29629032 32.834,9.00529032 32.834,8.65729032 C32.834,8.29729032 32.909,7.98829032 33.059,7.73029032 C33.209,7.47229032 33.404,7.25629032 33.644,7.08229032 C33.884,6.90829032 34.151,6.78229032 34.445,6.70429032 C34.739,6.62629032 35.03,6.58729032 35.318,6.58729032 C35.858,6.58729032 36.344,6.69829032 36.776,6.92029032 C37.208,7.14229032 37.55,7.42729032 37.802,7.77529032 L37.802,7.77529032 L39.062,6.55129032 C38.666,6.10729032 38.144,5.75329032 37.496,5.48929032 C36.848,5.22529032 36.152,5.09329032 35.408,5.09329032 C34.88,5.09329032 34.355,5.16229032 33.833,5.30029032 C33.311,5.43829032 32.843,5.65729032 32.429,5.95729032 C32.015,6.25729032 31.679,6.63529032 31.421,7.09129032 C31.163,7.54729032 31.034,8.09329032 31.034,8.72929032 C31.034,9.31729032 31.13,9.80929032 31.322,10.2052903 C31.514,10.6012903 31.766,10.9342903 32.078,11.2042903 C32.39,11.4742903 32.744,11.6962903 33.14,11.8702903 C33.536,12.0442903 33.938,12.1912903 34.346,12.3112903 C34.754,12.4432903 35.141,12.5722903 35.507,12.6982903 C35.873,12.8242903 36.194,12.9772903 36.47,13.1572903 C36.746,13.3372903 36.965,13.5562903 37.127,13.8142903 C37.289,14.0722903 37.37,14.3932903 37.37,14.7772903 C37.37,15.1612903 37.292,15.4882903 37.136,15.7582903 C36.98,16.0282903 36.779,16.2532903 36.533,16.4332903 C36.287,16.6132903 36.014,16.7452903 35.714,16.8292903 C35.414,16.9132903 35.114,16.9552903 34.814,16.9552903 C34.226,16.9552903 33.68,16.8172903 33.176,16.5412903 C32.672,16.2652903 32.27,15.9052903 31.97,15.4612903 L31.97,15.4612903 L30.584,16.6312903 C31.076,17.2432903 31.697,17.7052903 32.447,18.0172903 C33.197,18.3292903 33.974,18.4852903 34.778,18.4852903 Z M41.744,22.4812903 C42.164,22.4812903 42.527,22.4272903 42.833,22.3192903 C43.139,22.2112903 43.406,22.0582903 43.634,21.8602903 C43.862,21.6622903 44.06,21.4222903 44.228,21.1402903 C44.396,20.8582903 44.552,20.5372903 44.696,20.1772903 L44.696,20.1772903 L48.836,9.62929032 L47.036,9.62929032 L44.678,16.3252903 L44.642,16.3252903 L41.996,9.62929032 L40.106,9.62929032 L43.76,18.1612903 L43.22,19.5832903 C43.04,20.0392903 42.842,20.3902903 42.626,20.6362903 C42.41,20.8822903 42.08,21.0052903 41.636,21.0052903 C41.36,21.0052903 41.078,20.9572903 40.79,20.8612903 L40.79,20.8612903 L40.628,22.3552903 C40.82,22.4032903 41.009,22.4362903 41.195,22.4542903 C41.381,22.4722903 41.564,22.4812903 41.744,22.4812903 Z M52.166,18.1612903 L52.166,13.6252903 C52.166,12.7732903 52.373,12.0922903 52.787,11.5822903 C53.201,11.0722903 53.72,10.8172903 54.344,10.8172903 C54.68,10.8172903 54.962,10.8742903 55.19,10.9882903 C55.418,11.1022903 55.604,11.2582903 55.748,11.4562903 C55.892,11.6542903 55.994,11.8912903 56.054,12.1672903 C56.114,12.4432903 56.144,12.7492903 56.144,13.0852903 L56.144,13.0852903 L56.144,18.1612903 L57.836,18.1612903 L57.836,13.5532903 C57.836,13.2172903 57.875,12.8872903 57.953,12.5632903 C58.031,12.2392903 58.157,11.9482903 58.331,11.6902903 C58.505,11.4322903 58.73,11.2222903 59.006,11.0602903 C59.282,10.8982903 59.612,10.8172903 59.996,10.8172903 C60.368,10.8172903 60.674,10.8892903 60.914,11.0332903 C61.154,11.1772903 61.346,11.3692903 61.49,11.6092903 C61.634,11.8492903 61.736,12.1252903 61.796,12.4372903 C61.856,12.7492903 61.886,13.0792903 61.886,13.4272903 L61.886,13.4272903 L61.886,18.1612903 L63.578,18.1612903 L63.578,12.8692903 C63.578,12.3892903 63.515,11.9392903 63.389,11.5192903 C63.263,11.0992903 63.068,10.7332903 62.804,10.4212903 C62.54,10.1092903 62.21,9.86029032 61.814,9.67429032 C61.418,9.48829032 60.944,9.39529032 60.392,9.39529032 C59.78,9.39529032 59.216,9.54229032 58.7,9.83629032 C58.184,10.1302903 57.782,10.5532903 57.494,11.1052903 C57.23,10.4932903 56.867,10.0552903 56.405,9.79129032 C55.943,9.52729032 55.424,9.39529032 54.848,9.39529032 C54.2,9.39529032 53.639,9.55429032 53.165,9.87229032 C52.691,10.1902903 52.346,10.5772903 52.13,11.0332903 L52.13,11.0332903 L52.076,11.0332903 C52.076,10.8532903 52.07,10.6282903 52.058,10.3582903 C52.046,10.0882903 52.028,9.84529032 52.004,9.62929032 L52.004,9.62929032 L50.402,9.62929032 C50.426,9.90529032 50.444,10.2232903 50.456,10.5832903 C50.468,10.9432903 50.474,11.2372903 50.474,11.4652903 L50.474,18.1612903 L52.166,18.1612903 Z M71.228,18.3952903 C71.888,18.3952903 72.482,18.2782903 73.01,18.0442903 C73.538,17.8102903 73.988,17.4892903 74.36,17.0812903 C74.732,16.6732903 75.02,16.1932903 75.224,15.6412903 C75.428,15.0892903 75.53,14.5012903 75.53,13.8772903 C75.53,13.2532903 75.428,12.6682903 75.224,12.1222903 C75.02,11.5762903 74.729,11.0992903 74.351,10.6912903 C73.973,10.2832903 73.523,9.96529032 73.001,9.73729032 C72.479,9.50929032 71.9,9.39529032 71.264,9.39529032 C70.556,9.39529032 69.944,9.54229032 69.428,9.83629032 C68.912,10.1302903 68.51,10.4872903 68.222,10.9072903 L68.222,10.9072903 L68.168,10.9072903 L68.168,4.55329032 L66.476,4.55329032 L66.476,18.1612903 L68.114,18.1612903 L68.114,16.8112903 L68.15,16.8112903 C68.486,17.3272903 68.93,17.7202903 69.482,17.9902903 C70.034,18.2602903 70.616,18.3952903 71.228,18.3952903 Z M70.94,16.9732903 C70.508,16.9732903 70.115,16.8892903 69.761,16.7212903 C69.407,16.5532903 69.104,16.3282903 68.852,16.0462903 C68.6,15.7642903 68.405,15.4372903 68.267,15.0652903 C68.129,14.6932903 68.06,14.3032903 68.06,13.8952903 C68.06,13.4872903 68.129,13.0972903 68.267,12.7252903 C68.405,12.3532903 68.6,12.0232903 68.852,11.7352903 C69.104,11.4472903 69.407,11.2192903 69.761,11.0512903 C70.115,10.8832903 70.508,10.7992903 70.94,10.7992903 C71.408,10.7992903 71.819,10.8832903 72.173,11.0512903 C72.527,11.2192903 72.824,11.4472903 73.064,11.7352903 C73.304,12.0232903 73.484,12.3532903 73.604,12.7252903 C73.724,13.0972903 73.784,13.4812903 73.784,13.8772903 C73.784,14.2732903 73.724,14.6572903 73.604,15.0292903 C73.484,15.4012903 73.304,15.7312903 73.064,16.0192903 C72.824,16.3072903 72.527,16.5382903 72.173,16.7122903 C71.819,16.8862903 71.408,16.9732903 70.94,16.9732903 Z M81.92,18.3952903 C82.568,18.3952903 83.174,18.2842903 83.738,18.0622903 C84.302,17.8402903 84.791,17.5282903 85.205,17.1262903 C85.619,16.7242903 85.943,16.2472903 86.177,15.6952903 C86.411,15.1432903 86.528,14.5372903 86.528,13.8772903 C86.528,13.2172903 86.411,12.6142903 86.177,12.0682903 C85.943,11.5222903 85.619,11.0512903 85.205,10.6552903 C84.791,10.2592903 84.302,9.95029032 83.738,9.72829032 C83.174,9.50629032 82.568,9.39529032 81.92,9.39529032 C81.272,9.39529032 80.666,9.50629032 80.102,9.72829032 C79.538,9.95029032 79.052,10.2592903 78.644,10.6552903 C78.236,11.0512903 77.915,11.5222903 77.681,12.0682903 C77.447,12.6142903 77.33,13.2172903 77.33,13.8772903 C77.33,14.5372903 77.447,15.1432903 77.681,15.6952903 C77.915,16.2472903 78.236,16.7242903 78.644,17.1262903 C79.052,17.5282903 79.538,17.8402903 80.102,18.0622903 C80.666,18.2842903 81.272,18.3952903 81.92,18.3952903 Z M81.92,16.9732903 C81.464,16.9732903 81.059,16.8892903 80.705,16.7212903 C80.351,16.5532903 80.054,16.3252903 79.814,16.0372903 C79.574,15.7492903 79.391,15.4192903 79.265,15.0472903 C79.139,14.6752903 79.076,14.2852903 79.076,13.8772903 C79.076,13.4692903 79.139,13.0792903 79.265,12.7072903 C79.391,12.3352903 79.574,12.0082903 79.814,11.7262903 C80.054,11.4442903 80.351,11.2192903 80.705,11.0512903 C81.059,10.8832903 81.464,10.7992903 81.92,10.7992903 C82.376,10.7992903 82.781,10.8832903 83.135,11.0512903 C83.489,11.2192903 83.786,11.4442903 84.026,11.7262903 C84.266,12.0082903 84.449,12.3352903 84.575,12.7072903 C84.701,13.0792903 84.764,13.4692903 84.764,13.8772903 C84.764,14.2852903 84.701,14.6752903 84.575,15.0472903 C84.449,15.4192903 84.266,15.7492903 84.026,16.0372903 C83.786,16.3252903 83.489,16.5532903 83.135,16.7212903 C82.781,16.8892903 82.376,16.9732903 81.92,16.9732903 Z M90.596,18.1612903 L90.596,4.55329032 L88.904,4.55329032 L88.904,18.1612903 L90.596,18.1612903 Z M95.996,18.3952903 C96.428,18.3952903 96.848,18.3472903 97.256,18.2512903 C97.664,18.1552903 98.027,17.9962903 98.345,17.7742903 C98.663,17.5522903 98.918,17.2672903 99.11,16.9192903 C99.302,16.5712903 99.398,16.1452903 99.398,15.6412903 C99.398,15.2692903 99.326,14.9452903 99.182,14.6692903 C99.038,14.3932903 98.837,14.1562903 98.579,13.9582903 C98.321,13.7602903 98.018,13.5952903 97.67,13.4632903 C97.322,13.3312903 96.944,13.2172903 96.536,13.1212903 C95.888,12.9772903 95.402,12.8182903 95.078,12.6442903 C94.754,12.4702903 94.592,12.2032903 94.592,11.8432903 C94.592,11.6392903 94.637,11.4682903 94.727,11.3302903 C94.817,11.1922903 94.937,11.0782903 95.087,10.9882903 C95.237,10.8982903 95.408,10.8322903 95.6,10.7902903 C95.792,10.7482903 95.984,10.7272903 96.176,10.7272903 C96.608,10.7272903 96.998,10.8262903 97.346,11.0242903 C97.694,11.2222903 97.964,11.4772903 98.156,11.7892903 L98.156,11.7892903 L99.326,10.7992903 C99.014,10.3432903 98.573,9.99529032 98.003,9.75529032 C97.433,9.51529032 96.842,9.39529032 96.23,9.39529032 C95.822,9.39529032 95.426,9.44629032 95.042,9.54829032 C94.658,9.65029032 94.316,9.80629032 94.016,10.0162903 C93.716,10.2262903 93.473,10.4962903 93.287,10.8262903 C93.101,11.1562903 93.008,11.5492903 93.008,12.0052903 C93.008,12.4012903 93.083,12.7342903 93.233,13.0042903 C93.383,13.2742903 93.578,13.4992903 93.818,13.6792903 C94.058,13.8592903 94.325,14.0002903 94.619,14.1022903 C94.913,14.2042903 95.204,14.2912903 95.492,14.3632903 C96.224,14.5312903 96.779,14.7112903 97.157,14.9032903 C97.535,15.0952903 97.724,15.3892903 97.724,15.7852903 C97.724,16.0252903 97.676,16.2232903 97.58,16.3792903 C97.484,16.5352903 97.355,16.6612903 97.193,16.7572903 C97.031,16.8532903 96.851,16.9222903 96.653,16.9642903 C96.455,17.0062903 96.248,17.0272903 96.032,17.0272903 C95.552,17.0272903 95.111,16.9132903 94.709,16.6852903 C94.307,16.4572903 93.992,16.1752903 93.764,15.8392903 L93.764,15.8392903 L92.558,16.8652903 C92.966,17.3812903 93.479,17.7652903 94.097,18.0172903 C94.715,18.2692903 95.348,18.3952903 95.996,18.3952903 Z"/>
  </g>
</svg>
