<svg xmlns="http://www.w3.org/2000/svg" width="16" height="16" viewBox="0 0 16 16">
  <path fill-rule="evenodd" d="M10.5397318,2.65980418 C11.3816915,2.65980418 13.9968695,3.49896543 14.3413075,6.18921769 L15.4894344,14.9140266 L15.4894344,14.9140266 C15.5608734,15.4208142 15.2655922,15.9276018 14.7384252,15.9929211 L14.6219608,16 L1.90107482,16 C1.30149745,16 0.957059378,15.4570133 1.03360117,14.9140266 L1.78423881,9.24965374 L1.78423881,9.24965374 L0.882708964,9.95310273 L0.5,8.94117298 L1.85492022,8.70952052 L2.18172806,6.18921769 L2.18172806,6.18921769 C2.51540244,3.58303582 4.98011295,2.71405946 5.91288876,2.66229354 L5.99825211,2.65980418 L10.5397318,2.65980418 Z M11.6878587,11.4956786 L4.79909736,11.4956786 L4.79909736,12.3348398 L5.607,12.334 L5.30937598,13.5071975 L6.53404466,13.5071975 L6.225,12.334 L11.6878587,12.3348398 L11.6878587,11.4956786 Z M8.11590838,4.06663334 C4.86288219,4.06663334 2.57513305,6.05758455 1.97980799,10.039487 L1.97980799,10.1258712 C3.28101847,6.77745327 5.32638526,5.1032443 8.11590838,5.1032443 C12.300193,5.1032443 13.3590212,7.84285898 14.6474747,10.5824737 L14.608465,10.2583542 C14.2518109,7.57527516 12.928014,4.06663334 8.11590838,4.06663334 Z M4.96493791,2.06745506 C8.15417927,-2.31346031 11.2923928,1.54914958 11.5220182,2.06745506 C11.1563185,1.91114071 10.5354795,1.84943767 9.6595012,1.88234596 C8.70698111,1.03495763 7.76721799,1.03495763 6.84021183,1.88234596 C6.04927997,1.82475646 5.42418867,1.88645949 4.96493791,2.06745506 Z"/>
</svg>
