<svg xmlns="http://www.w3.org/2000/svg" width="24" height="24" viewBox="0 0 24 24">
  <path fill-rule="evenodd" d="M6.63118036,22.6070427 C4.39273071,20.9515226 2.8071622,18.5848285 2.07267091,15.8100836 C1.69959596,14.3877354 1.71125456,11.6596249 2.09598809,10.2023009 C3.34345743,5.42227816 7.16747559,1.97133494 12.0057913,1.26016083 C13.2765778,1.08528195 15.2935142,1.19020928 16.5060077,1.49333267 C17.6602084,1.79645606 19.3157284,2.6008989 20.2017814,3.30041442 C21.6357882,4.44295643 22.7666716,6.23837959 23.1630638,8.01048557 C23.44287,9.24629632 23.3379426,11.1816226 22.9532091,12.254213 C21.985546,14.8773962 19.583876,16.5445749 16.7741554,16.5445749 C15.0603423,16.5445749 13.8012144,16.1015484 12.7985755,15.1572024 C12.09906,14.4926627 11.7609608,13.8980745 11.4811546,12.8138255 C10.8632492,10.3771797 12.6936482,7.76565514 15.1769283,7.59077626 C16.1679086,7.52082471 16.8790827,7.62575204 17.357085,7.91721683 L17.7418185,8.15038867 L17.4969881,8.59341517 C16.9606928,9.53776112 16.9023999,9.58439548 16.3194703,9.43283379 C14.4307784,8.95483152 12.9501372,11.1583054 14.0460448,12.8138255 C14.2092651,13.0586559 14.5939987,13.4200722 14.8971221,13.5949511 C15.3867829,13.8864159 15.5733204,13.9213917 16.4477148,13.9213917 C17.2754748,13.9213917 17.5436224,13.8747573 18.0799177,13.6182683 C20.1901228,12.6156294 21.0062242,9.8525431 19.8636822,7.59077626 C19.4556315,6.77467482 18.3830411,5.77203591 17.4620123,5.34066801 C13.556384,3.52192767 8.78801987,5.63213281 7.45894039,9.78259155 C7.10918263,10.8435234 7.03923108,12.627288 7.28406151,13.6882199 C7.68045364,15.3553985 8.88128861,17.1391631 10.2220267,18.0718504 C10.9914938,18.5964871 10.9448594,18.7480488 9.41758384,21.1030843 C7.84367392,23.5280715 7.85533252,23.5280715 6.63118036,22.6070427 L6.63118036,22.6070427 Z"/>
</svg>
