<svg xmlns="http://www.w3.org/2000/svg" width="24" height="24" viewBox="0 0 24 24">
  <path fill-rule="evenodd" d="M12,18.375 C13.0355339,18.375 13.875,19.2144661 13.875,20.25 C13.875,21.2855339 13.0355339,22.125 12,22.125 C10.9644661,22.125 10.125,21.2855339 10.125,20.25 C10.125,19.2144661 10.9644661,18.375 12,18.375 Z M12,10.125 C13.0355339,10.125 13.875,10.9644661 13.875,12 C13.875,13.0355339 13.0355339,13.875 12,13.875 C10.9644661,13.875 10.125,13.0355339 10.125,12 C10.125,10.9644661 10.9644661,10.125 12,10.125 Z M12,1.875 C13.0355339,1.875 13.875,2.71446609 13.875,3.75 C13.875,4.78553391 13.0355339,5.625 12,5.625 C10.9644661,5.625 10.125,4.78553391 10.125,3.75 C10.125,2.71446609 10.9644661,1.875 12,1.875 Z" transform="rotate(90 12 12)"/>
</svg>
