<svg xmlns="http://www.w3.org/2000/svg" width="24" height="24" viewBox="0 0 24 24">
  <path fill-rule="evenodd" d="M20.5023286,2.99989688 C20.7783284,2.99989688 21.0023281,3.22389664 21.0023281,3.49989688 L21.0023281,3.49989688 L21.0023281,20.4998786 C21.0023281,20.7761284 20.7783284,20.9998781 20.5023286,20.9998781 L20.5023286,20.9998781 L3.50234687,20.9998781 C3.22609664,20.9998781 3.00234687,20.7761284 3.00234687,20.4998786 L3.00234687,20.4998786 L3.00234687,3.49989688 C3.00234687,3.22389664 3.22609664,2.99989688 3.50234687,2.99989688 L3.50234687,2.99989688 Z M18,5 L11,5 C10.4477153,5 10,5.44771525 10,6 L10,6 L10,18 C10,18.5522847 10.4477153,19 11,19 L11,19 L18,19 C18.5522847,19 19,18.5522847 19,18 L19,18 L19,6 C19,5.44771525 18.5522847,5 18,5 L18,5 Z"/>
</svg>
