<svg xmlns="http://www.w3.org/2000/svg" width="24" height="24" viewBox="0 0 24 24">
  <path fill-rule="evenodd" d="M3.50234687,20.9998781 C3.25701327,20.9998781 3.05276657,20.8228907 3.01040722,20.5897163 L3.00234687,20.4998781 L3.00234687,3.49989688 C3.00234687,3.25434105 3.17933434,3.05026719 3.41250831,3.00794899 L3.50234687,2.99989688 L20.5023281,2.99989688 C20.7478839,2.99989688 20.9519578,3.17668681 20.994276,3.40999247 L21.0023281,3.49989688 L21.0023281,20.4998781 C21.0023281,20.7452117 20.8255382,20.9494584 20.5922322,20.9918178 L20.5023281,20.9998781 L3.50234687,20.9998781 Z M6.004675,18.999775 L13.004675,18.999775 C13.5175108,18.999775 13.9401822,18.6137348 13.9979473,18.1163961 L14.004675,17.999775 L14.004675,5.999775 C14.004675,5.48693916 13.6186348,5.06426784 13.1212961,5.00650273 L13.004675,4.999775 L6.004675,4.999775 C5.49183916,4.999775 5.06916783,5.38581519 5.01140273,5.88315387 L5.004675,5.999775 L5.004675,17.999775 C5.004675,18.5126108 5.39071519,18.9352822 5.88805387,18.9930473 L6.004675,18.999775 Z"/>
</svg>
