<svg xmlns="http://www.w3.org/2000/svg" width="24" height="24" viewBox="0 0 24 24">
  <path fill-rule="evenodd" d="M21.0023281,20.4998786 C21.0023281,20.7452117 20.8253407,20.9494584 20.5921663,20.9918178 L20.5023281,20.9998781 L3.50234687,20.9998781 C3.25679105,20.9998781 3.05271719,20.8228907 3.01039899,20.5897167 L3.00234687,20.4998786 L3.00234687,3.49989688 C3.00234687,3.25434111 3.17913681,3.0502672 3.41244247,3.00794899 L3.50234687,2.99989688 L20.5023281,2.99989688 C20.7476617,2.99989688 20.9519084,3.17668681 20.9942678,3.40999284 L21.0023281,3.49989688 L21.0023281,20.4998786 Z M19.002225,17.99755 L19.002225,10.99755 C19.002225,10.4847142 18.6161848,10.0620428 18.1188461,10.0042777 L18.002225,9.99755 L6.002225,9.99755 C5.48938916,9.99755 5.06671784,10.3835902 5.00895273,10.8809289 L5.002225,10.99755 L5.002225,17.99755 C5.002225,18.5103858 5.38826519,18.9330572 5.88560387,18.9908223 L6.002225,18.99755 L18.002225,18.99755 C18.5150608,18.99755 18.9377322,18.6115098 18.9954973,18.1141711 L19.002225,17.99755 Z"/>
</svg>
