<svg xmlns="http://www.w3.org/2000/svg" width="24" height="24" viewBox="0 0 24 24">
  <path fill-rule="evenodd" d="M3.00234687,3.49989688 C3.00234687,3.25456328 3.17933434,3.05031658 3.41250868,3.00795722 L3.50234687,2.99989688 L20.5023281,2.99989688 C20.7478839,2.99989688 20.9519578,3.17688435 20.994276,3.41005831 L21.0023281,3.49989688 L21.0023281,20.4998781 C21.0023281,20.7454339 20.8255382,20.9495078 20.5922325,20.991826 L20.5023281,20.9998781 L3.50234687,20.9998781 C3.25701333,20.9998781 3.05276658,20.8230882 3.01040722,20.5897822 L3.00234687,20.4998781 L3.00234687,3.49989688 Z M5.00245,6.002225 L5.00245,13.002225 C5.00245,13.5150608 5.38849019,13.9377322 5.88582887,13.9954973 L6.00245,14.002225 L18.00245,14.002225 C18.5152858,14.002225 18.9379572,13.6161848 18.9957223,13.1188461 L19.00245,13.002225 L19.00245,6.002225 C19.00245,5.48938916 18.6164098,5.06671784 18.1190711,5.00895273 L18.00245,5.002225 L6.00245,5.002225 C5.48961416,5.002225 5.06694284,5.38826519 5.00917773,5.88560387 L5.00245,6.002225 Z"/>
</svg>
