<svg xmlns="http://www.w3.org/2000/svg" width="24" height="24" viewBox="0 0 24 24">
  <path d="M19.1246216,9.25034415 L9.49986269,9.25034415 L9.49986269,6.50041303 C9.49511666,5.16228204 10.4575581,4.01643728 11.776408,3.79004817 C13.0952579,3.56365907 14.384728,4.32294865 14.8265022,5.58606093 C15.080892,6.30168091 15.8672403,6.67558184 16.5828603,6.42119206 C17.2984803,6.16680227 17.6723812,5.380454 17.4179915,4.664834 C16.5277912,2.14059081 13.9470821,0.626153058 11.3092314,1.08002972 C8.67138076,1.53390638 6.74525724,3.82380353 6.74993157,6.50041303 L6.74993157,9.25034415 L5.374966,9.25034415 C5.01023909,9.2501373 4.66039102,9.3949329 4.4024901,9.65283382 C4.14458919,9.91073473 3.99979359,10.2605828 4.00000022,10.6253097 L4.00000022,21.6250342 C3.99979359,21.9897611 4.14458919,22.3396092 4.4024901,22.5975101 C4.66039102,22.855411 5.01023909,23 5.374966,23 L19.1246216,23 C19.4893485,23 19.8391966,22.855411 20.0970975,22.5975101 C20.3549984,22.3396092 20.499794,21.9897611 20.4995874,21.6250342 L20.4995874,10.6253097 C20.499794,10.2605828 20.3549984,9.91073473 20.0970975,9.65283382 C19.8391966,9.3949329 19.4893485,9.2501373 19.1246216,9.25034415 Z M17.7496561,20.2500687 L6.74993157,20.2500687 L6.74993157,12.0002753 L17.7496561,12.0002753 L17.7496561,20.2500687 Z"/>
</svg>
